<svg width="63" height="53" viewBox="0 0 63 53" fill="none" xmlns="http://www.w3.org/2000/svg">
<path d="M9.34216 50.7691L10.5644 51.1095L12.4641 46.5747L10.6603 46.0723L9.34216 50.7691Z" fill="#FFB8B8"/>
<path d="M12.6044 52.8969L8.76298 51.8269L9.17792 50.3482L11.6837 51.0462C12.0379 51.1449 12.3383 51.3797 12.5188 51.699C12.6992 52.0183 12.7449 52.3959 12.6459 52.7489L12.6044 52.8969Z" fill="#2F2E41"/>
<path d="M23.9219 51.7227L25.1911 51.7226L25.7946 46.8456L23.9215 46.8457L23.9219 51.7227Z" fill="#FFB8B8"/>
<path d="M27.6387 52.8965L23.65 52.8969L23.6498 51.3615L26.2517 51.3613C26.4338 51.3613 26.6142 51.397 26.7824 51.4664C26.9507 51.5358 27.1036 51.6376 27.2324 51.7659C27.3612 51.8942 27.4633 52.0465 27.533 52.2141C27.6028 52.3817 27.6386 52.5614 27.6387 52.7428L27.6387 52.8965V52.8965Z" fill="#2F2E41"/>
<path d="M14.4907 31.4752L11.5696 38.6047L23.4977 41.2744L23.6499 37.2856L18.2335 31.538L14.4907 31.4752Z" fill="#B3B3B3"/>
<path d="M20.9626 20.3689C22.284 19.6493 22.7696 17.9988 22.0473 16.6824C21.325 15.366 19.6683 14.8822 18.3469 15.6018C17.0256 16.3214 16.54 17.9719 17.2623 19.2883C17.9846 20.6048 19.6413 21.0885 20.9626 20.3689Z" fill="#FFB8B8"/>
<path d="M21.6031 31.0807L16.2039 28.8788L15.7232 25.721C15.5816 24.7979 15.8027 23.8561 16.3404 23.0913C16.8781 22.3265 17.691 21.7976 18.6101 21.6147L19.3243 21.4719C19.911 21.3548 20.5174 21.3823 21.091 21.5518C21.6647 21.7213 22.1881 22.0277 22.6158 22.4445C23.0348 22.8433 23.3481 23.3394 23.5278 23.8883C23.7075 24.4371 23.7479 25.0218 23.6455 25.5901C23.5649 26.077 23.3666 26.5371 23.0679 26.9308C21.3718 29.1405 21.5895 30.9775 21.5919 30.9958L21.6031 31.0807Z" fill="#84BCFF"/>
<path d="M23.8015 39.316L21.0957 35.0288L21.9479 27.2301L20.7706 21.3975L20.8332 21.3991C21.518 21.4159 22.17 21.6945 22.6542 22.1772C23.1384 22.6598 23.4178 23.3095 23.4344 23.9917L24.5797 29.7071L23.8015 39.316Z" fill="#2F2E41"/>
<path d="M23.8632 50.8007C23.7492 50.8006 23.6387 50.7612 23.5505 50.6892C23.4623 50.6172 23.4018 50.517 23.3793 50.4056L22.1939 44.5328C21.9773 43.4568 21.5696 42.4281 20.9899 41.495L17.645 36.1042C17.6283 36.0774 17.6046 36.0557 17.5763 36.0415C17.5481 36.0272 17.5165 36.021 17.4849 36.0235C17.4534 36.026 17.4231 36.0372 17.3975 36.0557C17.3719 36.0742 17.3519 36.0994 17.3397 36.1285L11.8404 49.2902C11.7962 49.3954 11.7167 49.4821 11.6156 49.5355C11.5144 49.589 11.3978 49.6058 11.2856 49.5832L9.81652 49.2848C9.69066 49.2598 9.57961 49.1868 9.50705 49.0813C9.4345 48.9758 9.40619 48.8463 9.42817 48.7203L10.6266 41.6837C10.8711 40.2495 11.2876 38.8497 11.8673 37.5145L15.9261 28.1692L21.9158 30.129L22.311 34.3075L25.0785 40.9839C25.2698 41.445 25.3841 41.9341 25.417 42.4319L25.9283 50.148C25.9362 50.2768 25.8933 50.4036 25.8088 50.5013C25.7242 50.599 25.6046 50.6599 25.4756 50.671L23.9039 50.7991C23.8903 50.8002 23.8767 50.8007 23.8632 50.8007Z" fill="#2F2E41"/>
<path d="M12.9365 41.228L11.0376 39.4323L14.6263 25.6456C14.8539 24.7788 15.2808 23.9766 15.8732 23.3024C16.4655 22.6282 17.2072 22.1004 18.0394 21.7608L18.1099 21.7323L17.9181 30.1231L12.9365 41.228Z" fill="#2F2E41"/>
<path d="M19.0192 20.6921C18.3456 20.1112 18.1407 19.0276 18.5535 18.2287C18.9662 17.4298 19.9531 16.9998 20.797 17.2511C21.5919 17.4877 22.4954 16.6983 22.3986 15.8518C22.3018 15.0053 21.2448 14.4539 20.5252 14.8744C19.9802 14.6565 19.3836 14.6001 18.8072 14.7119C18.2307 14.8238 17.699 15.0991 17.2759 15.5049C16.4305 16.3301 16.1097 17.679 16.4893 18.8134C16.8688 19.9477 17.9283 20.8065 19.0192 20.6921Z" fill="#2F2E41"/>
<path d="M16.634 42.7696C16.6007 42.7824 16.5661 42.7913 16.5308 42.7961L12.1955 43.399C12.0906 43.414 11.9837 43.3929 11.8925 43.3393C11.8012 43.2858 11.7309 43.2028 11.6933 43.1041L7.96162 33.4303C7.93745 33.3676 7.92713 33.3006 7.93134 33.2336C7.93555 33.1666 7.9542 33.1013 7.98602 33.0422C8.01785 32.9831 8.06209 32.9315 8.11574 32.8909C8.16939 32.8504 8.23119 32.8218 8.29692 32.8072L8.29694 32.8072L12.3738 31.9008C12.4053 31.8937 12.4357 31.8826 12.4643 31.8678L16.4297 29.8023C16.4603 29.7863 16.4926 29.7738 16.5261 29.7649L20.89 28.6059C21.0017 28.576 21.1206 28.5885 21.2237 28.6408C21.3268 28.6932 21.4067 28.7818 21.4481 28.8895L24.7018 37.3245C24.7304 37.398 24.7398 37.4775 24.729 37.5556C24.7182 37.6337 24.6877 37.7077 24.6403 37.7708L23.515 39.2763C23.4621 39.3472 23.39 39.4016 23.3073 39.4332L20.848 40.3748C20.8304 40.3815 20.8133 40.3896 20.7969 40.399L16.699 42.7388C16.6782 42.7507 16.6564 42.761 16.634 42.7696V42.7696Z" fill="white"/>
<path d="M18.6512 29.8955L18.0971 30.0428L16.6286 30.433L16.6259 30.4336L14.6154 31.4809L13.8693 31.8696L13.869 31.8698L12.7483 32.4534L12.7176 32.4603L11.5535 32.719L10.9909 32.8443L8.69617 33.3544L12.2986 42.6933L14.6633 42.3645L15.2431 42.2837L16.4789 42.1117L16.4932 42.1098L20.4643 39.8423L22.8804 38.9173L23.9835 37.4415L20.8477 29.3122L18.6512 29.8955Z" fill="#E6E6E6"/>
<path d="M21.3642 30.6516L9.41785 35.2255L9.62243 35.7559L21.5688 31.1819L21.3642 30.6516Z" fill="white"/>
<path d="M22.046 32.4194L10.0996 36.9933L10.3042 37.5237L22.2506 32.9497L22.046 32.4194Z" fill="white"/>
<path d="M23.4238 35.9904L11.4774 40.5644L11.682 41.0948L23.6284 36.5208L23.4238 35.9904Z" fill="white"/>
<path d="M18.6511 29.8955L22.2276 39.1671L21.6953 39.371L18.0969 30.0428L18.6511 29.8955Z" fill="white"/>
<path d="M14.6153 31.4809L13.8809 33.5167L13.6262 34.2229L13.0322 35.8706L12.9049 36.2228L12.7776 36.5768L12.6098 37.0415L11.4059 40.3795L11.0929 39.568L12.0745 36.846L12.2966 36.2297L12.3292 36.1397L12.5918 35.4111L12.9232 34.4921L13.1779 33.7858L13.8688 31.8698L13.8691 31.8697L14.6153 31.4809Z" fill="white"/>
<path opacity="0.1" d="M20.5507 39.8092L20.4641 39.8424L16.493 42.1099L16.4787 42.1116L12.7174 32.4603L12.7482 32.4534L13.8688 31.8698L13.8691 31.8697L14.6153 31.4809L16.6258 30.4335L16.6284 30.4329L20.5507 39.8092Z" fill="black"/>
<path d="M16.6519 42.8161C16.6151 42.8302 16.5768 42.84 16.5377 42.8454L12.2024 43.4484C12.0863 43.4649 11.9681 43.4416 11.8671 43.3823C11.7661 43.323 11.6883 43.2312 11.6467 43.122L7.91501 33.4481C7.88827 33.3788 7.87685 33.3046 7.88151 33.2305C7.88617 33.1564 7.90681 33.0841 7.94203 33.0187C7.97724 32.9533 8.02621 32.8962 8.08557 32.8513C8.14494 32.8064 8.21333 32.7748 8.28606 32.7586L12.363 31.8522C12.3902 31.8461 12.4165 31.8365 12.4412 31.8237L16.4065 29.7582C16.4404 29.7405 16.4762 29.7266 16.5132 29.7168L20.8771 28.5578C21.0008 28.5247 21.1324 28.5385 21.2465 28.5965C21.3605 28.6544 21.449 28.7525 21.4947 28.8717L24.7485 37.3067C24.7801 37.388 24.7904 37.476 24.7785 37.5624C24.7666 37.6488 24.7328 37.7308 24.6804 37.8006L23.5551 39.306C23.4965 39.3844 23.4168 39.4446 23.3252 39.4797L20.866 40.4212C20.8507 40.4271 20.8359 40.4341 20.8218 40.4422L16.7239 42.782C16.7008 42.7952 16.6767 42.8066 16.6519 42.8161V42.8161ZM8.2846 32.9664C8.20573 32.9967 8.14214 33.0569 8.1078 33.1338C8.07347 33.2108 8.07121 33.2981 8.10151 33.3767L11.8332 43.0506C11.8588 43.1177 11.9066 43.1741 11.9687 43.2106C12.0307 43.247 12.1034 43.2614 12.1748 43.2512L16.5101 42.6483C16.5504 42.6426 16.5892 42.6294 16.6245 42.6093L20.7225 40.2694C20.7455 40.2563 20.7695 40.2449 20.7943 40.2354L23.2535 39.2938C23.3098 39.2723 23.3588 39.2353 23.3948 39.1871L24.5201 37.6817C24.5524 37.6388 24.5731 37.5884 24.5805 37.5353C24.5878 37.4822 24.5814 37.4281 24.562 37.3781L21.3082 28.9431C21.2801 28.8698 21.2257 28.8095 21.1556 28.7739C21.0855 28.7383 21.0046 28.7298 20.9286 28.7501L16.5647 29.9092C16.542 29.9153 16.52 29.9238 16.4992 29.9346L12.5338 32.0001C12.4935 32.021 12.4508 32.0366 12.4065 32.0465L8.3296 32.9529C8.31429 32.9563 8.29925 32.9608 8.2846 32.9664Z" fill="#E6E6E6"/>
<path d="M11.5535 32.7189L15.243 42.2837L14.6633 42.3645L10.9908 32.8442L11.5535 32.7189Z" fill="white"/>
<path d="M12.6145 36.5797C12.7615 36.5797 12.8807 36.461 12.8807 36.3146C12.8807 36.1681 12.7615 36.0494 12.6145 36.0494C12.4675 36.0494 12.3484 36.1681 12.3484 36.3146C12.3484 36.461 12.4675 36.5797 12.6145 36.5797Z" fill="#3F3D56"/>
<path d="M22.0508 36.8624C22.1978 36.8624 22.3169 36.7436 22.3169 36.5972C22.3169 36.4508 22.1978 36.3321 22.0508 36.3321C21.9038 36.3321 21.7847 36.4508 21.7847 36.5972C21.7847 36.7436 21.9038 36.8624 22.0508 36.8624Z" fill="#84BCFF"/>
<path d="M22.1587 31.8082C22.4607 32.5913 22.0972 35.1862 21.9694 36.0192C21.9654 36.0456 21.9544 36.0705 21.9376 36.0913C21.9208 36.1121 21.8987 36.1281 21.8737 36.1377C21.8487 36.1473 21.8215 36.1501 21.795 36.1459C21.7686 36.1416 21.7437 36.1305 21.7229 36.1136C21.0681 35.5803 19.0538 33.8957 18.7517 33.1127C18.6657 32.8898 18.6247 32.6522 18.6309 32.4136C18.637 32.1749 18.6903 31.9397 18.7877 31.7216C18.8851 31.5034 19.0247 31.3065 19.1985 31.1421C19.3722 30.9777 19.5768 30.849 19.8005 30.7633C20.0242 30.6777 20.2627 30.6368 20.5023 30.6429C20.7418 30.6491 20.9779 30.7022 21.1968 30.7992C21.4158 30.8962 21.6135 31.0353 21.7785 31.2084C21.9435 31.3815 22.0727 31.5854 22.1587 31.8082V31.8082Z" fill="#84BCFF"/>
<path d="M20.4551 33.4452C21.001 33.4452 21.4436 33.0043 21.4436 32.4604C21.4436 31.9165 21.001 31.4756 20.4551 31.4756C19.9091 31.4756 19.4666 31.9165 19.4666 32.4604C19.4666 33.0043 19.9091 33.4452 20.4551 33.4452Z" fill="white"/>
<path d="M19.1855 30.3354C19.2255 30.1891 19.2972 30.0534 19.3956 29.9377C19.4939 29.822 19.6166 29.7292 19.7548 29.6659C19.8931 29.6025 20.0436 29.5701 20.1958 29.571C20.348 29.5718 20.4981 29.6059 20.6356 29.6709L22.4003 28.0816L23.6312 28.9145L21.1075 31.1239C20.9827 31.3469 20.7802 31.5164 20.5383 31.6005C20.2964 31.6846 20.0319 31.6774 19.795 31.5802C19.558 31.483 19.3651 31.3026 19.2528 31.0732C19.1405 30.8438 19.1165 30.5813 19.1855 30.3354V30.3354Z" fill="#FFB8B8"/>
<path d="M22.0288 30.8542L20.6455 28.9839L23.7991 26.9731L21.5388 23.7598C21.3541 23.4973 21.2731 23.1761 21.3114 22.8578C21.3496 22.5395 21.5044 22.2464 21.7461 22.0347C21.9878 21.823 22.2993 21.7076 22.6211 21.7106C22.9429 21.7135 23.2522 21.8346 23.49 22.0507L26.3201 24.6232C26.5897 24.8682 26.7988 25.172 26.9313 25.5107C27.0637 25.8495 27.1159 26.2142 27.0837 26.5763C27.0515 26.9384 26.9358 27.2883 26.7457 27.5986C26.5555 27.9089 26.296 28.1713 25.9874 28.3653L22.0288 30.8542Z" fill="#2F2E41"/>
<path d="M11.1912 35.7614C11.3162 35.675 11.4207 35.5623 11.4973 35.4313C11.5739 35.3003 11.6208 35.1541 11.6346 35.0031C11.6484 34.8521 11.6287 34.7 11.5771 34.5574C11.5255 34.4147 11.4431 34.2851 11.3357 34.1777L12.2501 31.9898L11.0511 31.1119L9.80337 34.2197C9.63411 34.4113 9.54129 34.6581 9.54249 34.9134C9.5437 35.1687 9.63885 35.4146 9.80992 35.6047C9.98098 35.7947 10.2161 35.9156 10.4707 35.9445C10.7252 35.9734 10.9816 35.9082 11.1912 35.7614V35.7614Z" fill="#FFB8B8"/>
<path d="M11.809 33.5399L9.64648 33.0382L11.258 28.4085C11.5357 27.6097 11.9454 26.8627 12.4702 26.1984L15.0992 22.8677C15.3397 22.563 15.6915 22.3657 16.0777 22.319C16.4639 22.2723 16.8529 22.3799 17.1595 22.6184C17.4662 22.8569 17.6655 23.2067 17.7137 23.5913C17.762 23.9758 17.6553 24.3638 17.417 24.6701L14.4997 28.4213L11.809 33.5399Z" fill="#2F2E41"/>
<path d="M38.1629 53H0.099903C0.0734071 53 0.0479948 52.9895 0.0292593 52.9708C0.0105239 52.9522 0 52.9269 0 52.9005C0 52.8741 0.0105239 52.8488 0.0292593 52.8301C0.0479948 52.8114 0.0734071 52.8009 0.099903 52.8009H38.1629C38.1894 52.8009 38.2149 52.8114 38.2336 52.8301C38.2523 52.8488 38.2629 52.8741 38.2629 52.9005C38.2629 52.9269 38.2523 52.9522 38.2336 52.9708C38.2149 52.9895 38.1894 53 38.1629 53Z" fill="#CCCCCC"/>
<path d="M52.9273 52.9502H52.0282V0.447887C52.0282 0.3291 52.0756 0.215179 52.1599 0.131184C52.2442 0.0471884 52.3585 0 52.4778 0C52.597 0 52.7113 0.0471884 52.7957 0.131184C52.88 0.215179 52.9273 0.3291 52.9273 0.447887V52.9502Z" fill="#E6E6E6"/>
<path d="M59.4423 53H45.4559C45.4294 53 45.404 52.9895 45.3852 52.9708C45.3665 52.9522 45.356 52.9269 45.356 52.9005C45.356 52.8741 45.3665 52.8488 45.3852 52.8301C45.404 52.8114 45.4294 52.8009 45.4559 52.8009H59.4423C59.4688 52.8009 59.4942 52.8114 59.5129 52.8301C59.5317 52.8488 59.5422 52.8741 59.5422 52.9005C59.5422 52.9269 59.5317 52.9522 59.5129 52.9708C59.4942 52.9895 59.4688 53 59.4423 53Z" fill="#CCCCCC"/>
<path d="M59.1663 6.8676H46.084C45.9648 6.86747 45.8505 6.82024 45.7662 6.73627C45.6819 6.6523 45.6345 6.53846 45.6344 6.41971V2.63755C45.6345 2.51881 45.6819 2.40496 45.7662 2.321C45.8505 2.23703 45.9648 2.1898 46.084 2.18967H59.1672C59.2439 2.18972 59.3193 2.20927 59.3863 2.24648L62.7695 4.1275C62.8392 4.16627 62.8973 4.22284 62.9378 4.29141C62.9783 4.35997 62.9998 4.43805 63 4.51761C63.0001 4.59717 62.979 4.67534 62.9388 4.74408C62.8986 4.81282 62.8408 4.86965 62.7712 4.90873L59.3871 6.80987C59.3196 6.84766 59.2436 6.86755 59.1663 6.8676V6.8676Z" fill="#84BCFF"/>
<path d="M57.9724 15.0291H44.8901C44.8128 15.0291 44.7367 15.0092 44.6693 14.9714L41.2852 13.0702C41.2156 13.0312 41.1577 12.9743 41.1175 12.9056C41.0773 12.8369 41.0562 12.7587 41.0564 12.6791C41.0566 12.5996 41.078 12.5215 41.1185 12.4529C41.159 12.3844 41.2172 12.3278 41.2869 12.289L44.6701 10.408C44.7371 10.3708 44.8125 10.3512 44.8892 10.3512H57.9724C58.0916 10.3513 58.2059 10.3985 58.2902 10.4825C58.3744 10.5665 58.4218 10.6803 58.422 10.7991V14.5812C58.4218 14.7 58.3744 14.8138 58.2902 14.8978C58.2059 14.9818 58.0916 15.029 57.9724 15.0291Z" fill="#E6E6E6"/>
<path d="M58.0224 23.0413H44.9402C44.8628 23.0413 44.7868 23.0214 44.7194 22.9836L41.3352 21.0824C41.2656 21.0434 41.2078 20.9865 41.1676 20.9178C41.1274 20.849 41.1063 20.7709 41.1064 20.6913C41.1066 20.6118 41.1281 20.5337 41.1686 20.4651C41.2091 20.3965 41.2672 20.34 41.3369 20.3012L44.7201 18.4202C44.7871 18.383 44.8625 18.3634 44.9392 18.3634H58.0224C58.1416 18.3635 58.2559 18.4107 58.3402 18.4947C58.4245 18.5787 58.4719 18.6925 58.472 18.8113V22.5934C58.4719 22.7122 58.4245 22.826 58.3402 22.91C58.2559 22.9939 58.1416 23.0412 58.0224 23.0413V23.0413Z" fill="#E6E6E6"/>
</svg>
