<svg width="12" height="21" viewBox="0 0 12 21" fill="none" xmlns="http://www.w3.org/2000/svg">
<path opacity="0.1" d="M6 0C4.4087 0 2.88258 0.63275 1.75736 1.75905C0.632144 2.88536 0 4.41295 0 6.00578C0 9.32265 6 20.099 6 20.099C6 20.099 12 9.327 12 6.00578C12 4.41295 11.3679 2.88536 10.2426 1.75905C9.11743 0.63275 7.5913 0 6 0V0ZM6 8.56759C5.47793 8.56759 4.96758 8.41262 4.53349 8.1223C4.0994 7.83197 3.76107 7.41931 3.56128 6.93651C3.36149 6.45372 3.30922 5.92246 3.41107 5.40992C3.51292 4.89739 3.76432 4.42659 4.13349 4.05707C4.50265 3.68756 4.97299 3.43591 5.48503 3.33396C5.99707 3.23201 6.52782 3.28434 7.01015 3.48432C7.49248 3.6843 7.90474 4.02296 8.19479 4.45746C8.48484 4.89197 8.63966 5.40281 8.63966 5.92539C8.63937 6.62596 8.36114 7.29773 7.86614 7.793C7.37114 8.28828 6.69989 8.5665 6 8.5665V8.56759Z" fill="black"/>
<path d="M6 0.869141C4.4087 0.869141 2.88258 1.50189 1.75736 2.62819C0.632144 3.7545 0 5.28209 0 6.87492C0 10.1918 6 20.9681 6 20.9681C6 20.9681 12 10.1961 12 6.87492C12 5.28209 11.3679 3.7545 10.2426 2.62819C9.11743 1.50189 7.5913 0.869141 6 0.869141V0.869141ZM6 9.43673C5.47793 9.43673 4.96758 9.28177 4.53349 8.99144C4.0994 8.70111 3.76107 8.28845 3.56128 7.80565C3.36149 7.32286 3.30922 6.7916 3.41107 6.27906C3.51292 5.76653 3.76432 5.29573 4.13349 4.92621C4.50265 4.5567 4.97299 4.30505 5.48503 4.2031C5.99707 4.10115 6.52782 4.15348 7.01015 4.35346C7.49248 4.55344 7.90474 4.8921 8.19479 5.3266C8.48484 5.76111 8.63966 6.27195 8.63966 6.79453C8.63937 7.4951 8.36114 8.16687 7.86614 8.66214C7.37114 9.15742 6.69989 9.43564 6 9.43564V9.43673Z" fill="#479BFF"/>
</svg>
