<svg width="28" height="28" viewBox="0 0 28 28" fill="none" xmlns="http://www.w3.org/2000/svg">
<path d="M24.9735 0H21.0547C20.6017 0 20.2344 0.367281 20.2344 0.820312C20.2344 1.27334 20.6017 1.64062 21.0547 1.64062H24.9735C25.7377 1.64062 26.3594 2.26231 26.3594 3.02641V6.94531C26.3594 7.39834 26.7267 7.76562 27.1797 7.76562C27.6327 7.76562 28 7.39834 28 6.94531V3.02641C28 1.35767 26.6423 0 24.9735 0Z" fill="#84BCFF"/>
<path d="M0.820312 7.76562C1.27334 7.76562 1.64062 7.39834 1.64062 6.94531V3.02641C1.64062 2.26231 2.26231 1.64062 3.02646 1.64062H6.94531C7.39834 1.64062 7.76562 1.27334 7.76562 0.820312C7.76562 0.367281 7.39834 0 6.94531 0H3.02646C1.35767 0 0 1.35767 0 3.02641V6.94531C0 7.39834 0.367281 7.76562 0.820312 7.76562V7.76562Z" fill="#84BCFF"/>
<path d="M6.94531 26.3594H3.02646C2.26231 26.3594 1.64062 25.7377 1.64062 24.9736V21.0547C1.64062 20.6017 1.27334 20.2344 0.820312 20.2344C0.367281 20.2344 0 20.6017 0 21.0547V24.9736C0 26.6423 1.35767 28 3.02646 28H6.94531C7.39834 28 7.76562 27.6327 7.76562 27.1797C7.76562 26.7267 7.39834 26.3594 6.94531 26.3594Z" fill="#84BCFF"/>
<path d="M27.1797 20.2344C26.7267 20.2344 26.3594 20.6017 26.3594 21.0547V24.9736C26.3594 25.7377 25.7377 26.3594 24.9735 26.3594H21.0547C20.6017 26.3594 20.2344 26.7267 20.2344 27.1797C20.2344 27.6327 20.6017 28 21.0547 28H24.9735C26.6423 28 28 26.6423 28 24.9736V21.0547C28 20.6017 27.6327 20.2344 27.1797 20.2344Z" fill="#84BCFF"/>
<path d="M24.4453 23.625V14.875C24.4453 14.422 24.078 14.0547 23.625 14.0547H14.875C14.422 14.0547 14.0547 14.422 14.0547 14.875V23.625C14.0547 24.078 14.422 24.4453 14.875 24.4453H23.625C24.078 24.4453 24.4453 24.078 24.4453 23.625ZM22.8047 22.8047H15.6953V15.6953H22.8047V22.8047Z" fill="#84BCFF"/>
<path d="M17.0625 12.1953H23.1875C23.6405 12.1953 24.0078 11.828 24.0078 11.375V5.25C24.0078 4.79697 23.6405 4.42969 23.1875 4.42969H17.0625C16.6095 4.42969 16.2422 4.79697 16.2422 5.25V11.375C16.2422 11.828 16.6095 12.1953 17.0625 12.1953ZM17.8828 6.07031H22.3672V10.5547H17.8828V6.07031Z" fill="#84BCFF"/>
<path d="M12.25 3.55469H4.375C3.92197 3.55469 3.55469 3.92197 3.55469 4.375V12.25C3.55469 12.703 3.92197 13.0703 4.375 13.0703H12.25C12.703 13.0703 13.0703 12.703 13.0703 12.25V4.375C13.0703 3.92197 12.703 3.55469 12.25 3.55469ZM11.4297 11.4297H5.19531V5.19531H11.4297V11.4297Z" fill="#84BCFF"/>
<path d="M11.375 22.8047H5.19531V15.75C5.19531 15.297 4.82803 14.9297 4.375 14.9297C3.92197 14.9297 3.55469 15.297 3.55469 15.75V23.625C3.55469 24.078 3.92197 24.4453 4.375 24.4453H11.375C11.828 24.4453 12.1953 24.078 12.1953 23.625C12.1953 23.172 11.828 22.8047 11.375 22.8047Z" fill="#84BCFF"/>
<path d="M8.69531 20.125V15.75C8.69531 15.297 8.32803 14.9297 7.875 14.9297C7.42197 14.9297 7.05469 15.297 7.05469 15.75V20.125C7.05469 20.578 7.42197 20.9453 7.875 20.9453C8.32803 20.9453 8.69531 20.578 8.69531 20.125Z" fill="#84BCFF"/>
<path d="M11.375 14.9297C10.922 14.9297 10.5547 15.297 10.5547 15.75V20.125C10.5547 20.578 10.922 20.9453 11.375 20.9453C11.828 20.9453 12.1953 20.578 12.1953 20.125V15.75C12.1953 15.297 11.828 14.9297 11.375 14.9297Z" fill="#84BCFF"/>
<path d="M18.375 20.0703H20.125C20.578 20.0703 20.9453 19.703 20.9453 19.25C20.9453 18.797 20.578 18.4297 20.125 18.4297H18.375C17.922 18.4297 17.5547 18.797 17.5547 19.25C17.5547 19.703 17.922 20.0703 18.375 20.0703Z" fill="#84BCFF"/>
<path d="M8.3125 9.57031C8.76553 9.57031 9.13281 9.20303 9.13281 8.75V7.875C9.13281 7.42197 8.76553 7.05469 8.3125 7.05469C7.85947 7.05469 7.49219 7.42197 7.49219 7.875V8.75C7.49219 9.20303 7.85947 9.57031 8.3125 9.57031Z" fill="#84BCFF"/>
</svg>
